<svg width="64" height="64" viewBox="0 0 64 64" fill="none" xmlns="http://www.w3.org/2000/svg">
    <rect width="64" height="64" fill="#5D432A"/>
    <rect x="0" y="8" width="64" height="4" fill="#4B3621"/>
    <rect x="0" y="24" width="64" height="4" fill="#4B3621"/>
    <rect x="0" y="40" width="64" height="4" fill="#4B3621"/>
    <rect x="0" y="56" width="64" height="4" fill="#4B3621"/>

    <rect x="8" y="10" width="16" height="12" fill="#4CAF50"/>
    <rect x="40" y="10" width="16" height="12" fill="#4CAF50"/>
    <rect x="24" y="26" width="16" height="12" fill="#4CAF50"/>
    <rect x="8" y="42" width="16" height="12" fill="#4CAF50"/>
    <rect x="40" y="42" width="16" height="12" fill="#4CAF50"/>

    <rect x="16" y="20" width="32" height="4" fill="#4CAF50"/>
    <rect x="16" y="36" width="32" height="4" fill="#4CAF50"/>

    <rect x="12" y="14" width="4" height="4" fill="#E74C3C"/>
    <rect x="20" y="12" width="2" height="2" fill="#E67E22"/>

    <rect x="44" y="14" width="4" height="4" fill="#E74C3C"/>
    <rect x="50" y="12" width="2" height="2" fill="#E67E22"/>

    <rect x="28" y="30" width="4" height="4" fill="#E74C3C"/>
    <rect x="34" y="28" width="2" height="2" fill="#E67E22"/>

    <rect x="12" y="46" width="4" height="4" fill="#E74C3C"/>
    <rect x="20" y="44" width="2" height="2" fill="#E67E22"/>

    <rect x="44" y="46" width="4" height="4" fill="#E74C3C"/>
    <rect x="50" y="44" width="2" height="2" fill="#E67E22"/>
</svg>
