<svg width="96" height="128" viewBox="0 0 96 128" fill="none" xmlns="http://www.w3.org/2000/svg">
  <!-- CHIMNEY — тонкий, элегантный, справа -->
  <rect x="64" y="2"  width="10" height="40" fill="#B0A090"/>
  <rect x="62" y="2"  width="14" height="5"  fill="#908070"/>
  <rect x="65" y="0"  width="8"  height="4"  fill="#706050"/>
  <!-- smoke puffs (мягкие) -->
  <rect x="64" y="0"  width="10" height="3"  fill="#DDD8D0"/>
  <rect x="65" y="0"  width="8"  height="2"  fill="#EEE8E0"/>

  <!-- КРЫША — тёплая черепица, глиняный цвет -->
  <!-- back edge -->
  <rect x="0"  y="32" width="96" height="8"  fill="#7A3A10"/>
  <!-- ridge lit -->
  <rect x="0"  y="40" width="96" height="5"  fill="#E08040"/>
  <!-- main surface -->
  <rect x="0"  y="45" width="96" height="44" fill="#C06828"/>
  <!-- tile rows -->
  <rect x="0"  y="52" width="96" height="2"  fill="#9A4C18"/>
  <rect x="0"  y="60" width="96" height="2"  fill="#9A4C18"/>
  <rect x="0"  y="68" width="96" height="2"  fill="#9A4C18"/>
  <rect x="0"  y="76" width="96" height="2"  fill="#9A4C18"/>
  <!-- tile offset pattern (даёт глубину) -->
  <rect x="0"  y="56" width="12" height="4"  fill="#B05A20"/>
  <rect x="16" y="56" width="12" height="4"  fill="#B05A20"/>
  <rect x="32" y="56" width="12" height="4"  fill="#B05A20"/>
  <rect x="48" y="56" width="12" height="4"  fill="#B05A20"/>
  <rect x="64" y="56" width="12" height="4"  fill="#B05A20"/>
  <rect x="80" y="56" width="12" height="4"  fill="#B05A20"/>
  <rect x="8"  y="64" width="12" height="4"  fill="#B05A20"/>
  <rect x="24" y="64" width="12" height="4"  fill="#B05A20"/>
  <rect x="40" y="64" width="12" height="4"  fill="#B05A20"/>
  <rect x="56" y="64" width="12" height="4"  fill="#B05A20"/>
  <rect x="72" y="64" width="12" height="4"  fill="#B05A20"/>
  <rect x="0"  y="72" width="12" height="4"  fill="#B05A20"/>
  <rect x="16" y="72" width="12" height="4"  fill="#B05A20"/>
  <rect x="32" y="72" width="12" height="4"  fill="#B05A20"/>
  <rect x="48" y="72" width="12" height="4"  fill="#B05A20"/>
  <rect x="64" y="72" width="12" height="4"  fill="#B05A20"/>
  <rect x="80" y="72" width="12" height="4"  fill="#B05A20"/>
  <!-- eave -->
  <rect x="0"  y="88" width="96" height="5"  fill="#D07030"/>
  <!-- eave shadow -->
  <rect x="0"  y="93" width="96" height="7"  fill="#1A0C04"/>

  <!-- ВЫВЕСКА над дверью -->
  <rect x="28" y="95" width="40" height="8"  fill="#8A5020"/>
  <rect x="30" y="96" width="36" height="6"  fill="#AA6830"/>
  <rect x="33" y="98" width="30" height="2"  fill="#C88040"/>

  <!-- СТЕНЫ — светлые, тёплые -->
  <rect x="0"  y="100" width="96" height="20" fill="#EEE0C0"/>
  <!-- Левое окно — БОЛЬШОЕ, светится печью -->
  <rect x="4"  y="101" width="30" height="16" fill="#B04808"/>
  <rect x="5"  y="102" width="28" height="14" fill="#E06018"/>
  <rect x="6"  y="103" width="26" height="12" fill="#FFB030"/>
  <rect x="8"  y="105" width="8"  height="7"  fill="#FFE060"/>
  <rect x="18" y="105" width="8"  height="7"  fill="#FFCC40"/>
  <!-- рама окна -->
  <rect x="4"  y="101" width="30" height="2"  fill="#7A4818"/>
  <rect x="4"  y="115" width="30" height="2"  fill="#7A4818"/>
  <rect x="18" y="101" width="2"  height="16" fill="#7A4818"/>
  <!-- Дверь — центр -->
  <rect x="38" y="103" width="20" height="17" fill="#7A4A18"/>
  <rect x="39" y="104" width="8"  height="11" fill="#9A6030"/>
  <rect x="49" y="104" width="8"  height="11" fill="#9A6030"/>
  <rect x="44" y="110" width="4"  height="3"  fill="#C08040"/>
  <!-- Правое окно — витрина с выпечкой -->
  <rect x="62" y="102" width="30" height="13" fill="#C8E8F8"/>
  <rect x="62" y="102" width="30" height="2"  fill="#7A4818"/>
  <rect x="76" y="102" width="2"  height="13" fill="#7A4818"/>
  <!-- хлеб в витрине -->
  <rect x="64" y="105" width="10" height="7"  fill="#D49050"/>
  <rect x="65" y="104" width="8"  height="3"  fill="#C07030"/>
  <rect x="79" y="105" width="10" height="7"  fill="#D08040"/>
  <rect x="80" y="104" width="8"  height="3"  fill="#B86020"/>

  <!-- FOUNDATION + GROUND -->
  <rect x="0"  y="120" width="96" height="4"  fill="#9A7840"/>
  <rect x="0"  y="124" width="96" height="4"  fill="#9EC85A"/>
</svg>
