<svg width="64" height="64" viewBox="0 0 64 64" fill="none" xmlns="http://www.w3.org/2000/svg">
  <rect width="64" height="64" fill="#8A6840"/>
  <rect x="0" y="0" width="64" height="12" fill="#A87848"/>
  <rect x="0" y="52" width="64" height="12" fill="#A87848"/>
  <rect x="0" y="12" width="8" height="40" fill="#C89050"/>
  <rect x="56" y="12" width="8" height="40" fill="#C89050"/>
  <rect x="0" y="12" width="64" height="4" fill="#6A5030"/>
  <rect x="0" y="48" width="64" height="4" fill="#6A5030"/>
  <rect x="0" y="24" width="64" height="4" fill="#7A6038"/>
  <rect x="0" y="36" width="64" height="4" fill="#7A6038"/>
  <rect x="12" y="16" width="4" height="4" fill="#4A3020"/>
  <rect x="48" y="16" width="4" height="4" fill="#4A3020"/>
  <rect x="12" y="28" width="4" height="4" fill="#4A3020"/>
  <rect x="48" y="28" width="4" height="4" fill="#4A3020"/>
  <rect x="12" y="40" width="4" height="4" fill="#4A3020"/>
  <rect x="48" y="40" width="4" height="4" fill="#4A3020"/>
</svg>
