<svg width="64" height="64" viewBox="0 0 64 64" fill="none" xmlns="http://www.w3.org/2000/svg">
    <path d="M36 60V64H40V60H36ZM60 8H64V4H60V8ZM56 48H48V56H56V48ZM36 36H32V40H36V36ZM28 44H24V48H28V44ZM36 20H32V24H36V20ZM8 12V16H12V12H8Z" fill="#A4AFAF"/>
    <path d="M0 0V64H36V60H40V64H64V8H60V4H64V0H0ZM8 16V12H12V16H8ZM12 28H16V32H12V28ZM4 52V48H8V52H4ZM16 24V16H24V24H16ZM60 12V16H56V12H60ZM32 12H28V8H32V12ZM32 20H36V24H32V20ZM40 44H44V48H40V44ZM24 44H28V48H24V44ZM32 36H36V40H32V36ZM48 48H56V56H48V48Z" fill="#ACB8B8"/>
    <path d="M44 44H40V48H44V44ZM28 12H32V8H28V12ZM60 16V12H56V16H60ZM16 16V24H24V16H16ZM4 48V52H8V48H4ZM16 28H12V32H16V28Z" fill="#B5C2C2"/>
</svg>
